<?xml version="1.0" encoding="UTF-8"?>
<svg id="d" data-name="Слой 2" xmlns="http://www.w3.org/2000/svg" viewBox="0 0 879.91 819.1">
  <defs>
    <style>
      .g {
        fill: #e9e8e8;
      }

      .g, .h, .i {
        stroke-width: 0px;
      }

      .j, .k, .l, .m, .n {
        stroke: #20262e;
        stroke-miterlimit: 10;
      }

      .j, .i {
        fill: #20262e;
      }

      .j, .n {
        stroke-width: 30px;
      }

      .k {
        stroke-width: 9px;
      }

      .k, .l, .m, .n {
        fill: none;
      }

      .h {
        fill: #913175;
      }

      .l {
        stroke-width: 10px;
      }

      .m {
        stroke-width: 8px;
      }
    </style>
  </defs>
  <g id="e" data-name="окантовка">
    <g>
      <path class="g" d="M149.41,64.54l-17,9c-27.89,16.51-31.23,54.61-17.07,83.76,6.58,13.56,17.75,24.63,23.32,38.64,10.63,26.68-1.54,57.3-19.01,80.1-16.82,21.95-39.87,43.32-39.27,70.96,4.52-8.48-17.35,17.66-7.97,15.55-36.53,45.15-25.66,71.39-23.1,129.42,2.57,58.03,27.01,114.82,67.38,156.58,17.08,17.67,36.81,32.64,57.69,45.59,71.81,44.52,157.71,64.87,242.12,61.01,84.4-3.86,167.13-31.45,239-75.88,22.61-13.97,44.3-29.68,62.96-48.6,76.45-77.49,90.86-204.6,45.8-303.68s-142.05-169.28-247.63-195.76c-20.94-5.25-42.33-8.96-63.91-9.77-50.73-1.9-101.25,12.25-151.86,8.28-11.95-.94-24.19-3.02-34.35-9.37-14.22-8.89-22.33-24.74-34.09-36.71-25.48-25.94-69.82-30.52-100.06-10.33"/>
      <path class="g" d="M129.98,31.3c-5.43,2.88-10.93,5.66-16.31,8.63-13.39,7.41-25.41,19.71-32.69,33.15-16.02,29.59-15.41,64.8-2.53,95.32,3.64,8.63,7.95,16.34,13.28,24.04,4.77,6.89,9.59,13.72,13.04,21.39l-3.88-9.2c2.07,4.99,3.44,10.07,4.17,15.42l-1.38-10.23c.58,5.29.51,10.51-.08,15.8l1.38-10.23c-1.1,8.12-3.38,15.87-6.52,23.43l3.88-9.2c-4.4,10.13-10.14,19.48-16.88,28.21l6.02-7.79c-10.71,13.7-22.54,26.64-32.1,41.2-10.82,16.48-17.62,35.92-17.5,55.76.1,16.28,11.83,33.38,28.27,37.12s35.5-2.17,43.48-17.69c5.06-9.85,7.54-20.3,4.48-31.32-6.72-24.2-35.2-35.35-56.73-23.04-8.36,4.78-13.84,12.39-19.39,19.99-5.1,6.99-8.53,14.92-9.69,23.51-1.67,12.44,1.77,24.88,10.9,33.99,10.92,10.9,25.01,12.7,39.45,10.11-12.49-21.45-24.97-42.9-37.46-64.35-6.37,7.94-12.75,15.98-18.06,24.69-4.69,7.69-8.22,15.91-11.57,24.26-5.19,12.97-7.28,27.11-8.04,41-.65,11.81.31,23.65,1.22,35.42,1.14,14.73,1.54,29.56,3.02,44.26,3.72,36.92,13.56,71.69,30.39,104.84,15.36,30.27,37.06,58.12,62.59,80.47,53.66,46.98,121.4,78.52,191,93.12,70.68,14.83,143.3,13.6,213.67-2.44,35.38-8.07,69.43-20.36,102.54-35.11,30.56-13.62,60.15-30.04,87.41-49.48,15.85-11.3,31.32-23.45,45.11-37.22,11.81-11.79,22.33-24.99,31.9-38.65,17.33-24.75,30.13-53.15,38.75-82.04,17.52-58.74,17.38-123.61.65-182.51-16.93-59.61-51.73-113.89-96.45-156.5-45.35-43.21-100.23-75.19-159.34-95.53-33.78-11.63-69.59-19.27-105.32-20.89-36.73-1.66-73.06,5.25-109.57,7.9-17.52,1.27-35.28,1.68-52.74-.61l10.23,1.38c-6.25-.92-12.32-2.31-18.22-4.61l9.2,3.88c-4.09-1.75-7.85-3.87-11.43-6.53l7.79,6.02c-11.64-9.21-19.04-22.24-29.15-32.9-13.03-13.75-29.56-23.11-47.31-29.28-32.3-11.24-71.81-6.94-100.5,11.8-8.37,5.47-14.99,13.2-17.69,23.01-2.54,9.22-1.39,21.49,3.88,29.67,10.84,16.81,34.64,25.6,52.68,13.81,3.9-2.55,7.97-4.72,12.26-6.55l-9.2,3.88c6.48-2.63,13.15-4.38,20.08-5.34l-10.23,1.38c7.43-.9,14.83-.86,22.25.09l-10.23-1.38c7.4,1.07,14.54,3.02,21.44,5.89l-9.2-3.88c5.97,2.61,11.54,5.84,16.75,9.78l-7.79-6.02c12.23,9.63,19.89,23.2,30.61,34.26,8.85,9.14,19.12,15.83,30.74,20.73s24.16,7.06,37.33,8.44c38.64,4.06,77.31-3.45,115.72-6.64,21.75-1.81,43.4-1.92,65.07.88l-10.23-1.38c33.54,4.55,66.43,14.08,97.63,27.13l-9.2-3.88c31.41,13.28,61.09,30.38,88.14,51.17l-7.79-6.02c23.6,18.29,44.99,39.28,63.36,62.84l-6.02-7.79c16.38,21.21,30.2,44.31,40.7,68.97l-3.88-9.2c9.86,23.51,16.47,48.21,19.91,73.47-.46-3.41-.92-6.82-1.38-10.23,3.38,25.76,3.44,51.82.11,77.59l1.38-10.23c-3.24,24.09-9.43,47.66-18.76,70.11,1.29-3.07,2.59-6.13,3.88-9.2-8.27,19.6-18.86,38.08-31.8,54.97l6.02-7.79c-13.31,17.14-28.96,32.08-46.08,45.38l7.79-6.02c-32.6,25.04-69.19,45.19-106.97,61.26,3.07-1.29,6.13-2.59,9.2-3.88-40.58,17.1-83.18,29.08-126.83,35.05l10.23-1.38c-39.85,5.29-80.16,5.41-120.02.08,3.41.46,6.82.92,10.23,1.38-37.3-5.15-73.81-14.97-108.52-29.6l9.2,3.88c-29.37-12.53-57.41-28.33-82.75-47.79,2.6,2.01,5.19,4.01,7.79,6.02-17.06-13.26-32.55-28.26-45.83-45.33,2.01,2.6,4.01,5.19,6.02,7.79-12.91-16.83-23.55-35.2-31.8-54.74l3.88,9.2c-8.12-19.59-13.74-40.06-16.66-61.07l1.38,10.23c-2.38-18-2.75-36.29-4.13-54.4-1.08-14.1-2.07-28.32-.21-42.4l-1.38,10.23c1.11-7.68,3.11-15.11,6.04-22.3l-3.88,9.2c4.2-9.91,9.93-18.95,16.43-27.5l-6.02,7.79c1.01-1.31,2.04-2.61,3.07-3.9,5.49-6.85,9.39-13.15,10.59-22.11,1.1-8.21.05-17.38-4.57-24.55-3.59-5.57-8.25-10.22-13.81-13.81-8.91-5.75-19.73-5.66-29.67-3.88l-.51.09,10.23-1.38c-.27.04-.54.04-.82,0l10.23,1.38-.31-.08,9.2,3.88-.25-.13,7.79,6.02-.2-.18,6.02,7.79-.14-.23,3.88,9.2-.09-.27,1.38,10.23c-.05-.38-.03-.68.02-1.06l-1.38,10.23c.14-.65.35-1.25.6-1.86l-3.88,9.2c1.33-2.95,3.22-5.63,5.17-8.21l-6.02,7.79c1.38-1.78,2.8-3.73,4.59-5.12l-7.79,6.02c.1-.08.21-.14.33-.19l-19.43,5.26h.11c-6.48-1.76-12.95-3.52-19.43-5.27l.07.05c-5.9-7.67-11.8-15.34-17.69-23.01l.02.11-1.38-10.23-.02.17,1.38-10.23c-.05.19-.11.37-.19.54l3.88-9.2c-.13.28-.26.56-.41.83l71.74,19.43c-.02-2.53.12-5.01.42-7.52l-1.38,10.23c.73-4.92,2.07-9.6,3.92-14.21l-3.88,9.2c3.84-8.98,9.28-17.01,15.2-24.73l-6.02,7.79c10.45-13.45,22.08-26.06,31.46-40.31,4.91-7.46,8.71-15.35,12.18-23.56s6.54-16.16,8-24.86c1.63-9.72,2.93-19.38,1.92-29.2-1.44-13.96-4.55-25.22-10.84-37.87-6.6-13.27-17.04-24.14-22.97-37.81l3.88,9.2c-2.8-6.76-4.73-13.75-5.77-21l1.38,10.23c-.84-6.66-.9-13.28-.05-19.94l-1.38,10.23c.76-5.14,2.04-10.11,3.96-14.94l-3.88,9.2c1.84-4.33,4.12-8.33,6.95-12.09l-6.02,7.79c2.43-3.06,5.13-5.78,8.16-8.25l-7.79,6.02c6.81-5.25,14.95-8.79,22.53-12.8,17.83-9.44,24.75-35.71,13.81-52.68-11.69-18.13-33.61-23.91-52.68-13.81h0Z"/>
    </g>
    <path class="j" d="M839.97,618.04c-28.49,70.19-90.14,101.97-134,127-94.87,54.14-186.66,58.72-252.06,58.99v-74.99c111-10,119.61-34.54,122-68,1-14,78.06-35.59,79-36,36.44-15.98,49-28,99-82,32.72-35.34,26-58,28-109,.24-6.03-.97-10.15-3.56-12.79-15.68-16.01-47.44,52.79-149.44,107.79,0,0,6-32.76-22-69-34-44-37-46-78-60-42.8-14.61-75.52-20.01-76-20l-1-298h16c17.08.69,31.23,2.55,41.06,4,34,5,45.56,8,62,14,8.06-13.78,19.74-29.65,43-48,19.46-15.35,47.31-37.32,87-36,46.94,1.56,76.87,34.58,84,43,26.03,30.75,28.67,65,29,77,1.21,45.3-27.54,75.13-34,83,7.21,16.16,28.42,39.91,40,69,39,98,35.54,108.27,42,150,3.74,24.21,9.29,102.89-22,180Z"/>
    <path class="n" d="M437.91,82.04h14v.39c-7.07-.25-12.36-.39-14-.39-28.21-.61-50.94,1.14-67,3-27,3.13-39.39,7.25-47.1,9.08-3.9.92-14.9,4.92-14.9,4.92,0,0-5-9-8.76-13.41-7.89-9.24-13.99-19.21-34.24-34.59-21.59-16.4-48.86-37.12-87-36-46.58,1.37-76.66,34.36-84,43-6.93,8.16-29.03,36.4-29,77,.01,8.96.3,32.54,14.12,55.53,9.91,16.49,17.18,16.72,19.88,27.47,5.12,20.37-17.76,32.38-40,69-20.77,34.2-27.62,67.87-35.19,105.04-.92,4.54-4.71,23.51-6.81,44.96-2.83,28.95-10.71,109.44,22,180,31.73,68.45,89.64,101.6,134,127,102.17,58.5,200.81,59.88,266,60,4.52.01,9.18.01,14-.01"/>
  </g>
  <g id="f" data-name="мордочка">
    <path class="i" d="M485.66,472.03c-1.62,5.27-8.6,9.33-20.03,14.82-12.43,5.98-16.14,12.5-21.72,19.19h-8c-6.14-6.74-11.93-13.08-24.62-19.19-11.42-5.5-19.19-9.72-20.81-14.98-2.31-7.49,14.16-17.74,18.5-20.33,11.29-6.74,21.97-7.49,31.22-7.49s17.62,1.82,28.91,8.56c4.34,2.59,18.87,11.93,16.56,19.42Z"/>
    <path class="l" d="M599.23,568.19c-15.88,23.24-41.77,28.9-56,32-10.24,2.24-40.13,8.3-71-8-3.95-2.08-7.55-4.34-10.82-6.68-14.54-10.38-20.89-13.62-21.5-31.47v-50l-.04,2-.96,45c-.23,6.71-1.64,11.76-4.1,16-4.07,7.03-11,11.84-20.07,18.32-3.28,2.34-6.88,4.59-10.83,6.68-11.81,6.23-23.48,9.2-33.96,10.35-2.83.12-5.5.21-8.04.24-8.24.11-15.24-.26-22.54-1.31-.02,0-.05-.01-.08-.01-2.41-.35-4.85-.77-7.38-1.27-4.49-.89-8.86-2.07-13.25-3.54-.01,0-.02,0-.03,0-6.22-2.08-12.48-4.76-19.22-8.03-8.18-4.63-16.14-11.11-22.5-20.42-14.56-21.3-12.14-44.84-11-56,4.71-45.95,38.91-74.15,46-80,24.87-20.52,51.45-27.21,82-34,18-4,21-4,44-4s26.32.15,44.32,4.15c30.55,6.79,57.13,13.49,82,34,7.09,5.85,41.29,34.06,46,80,1.15,11.16,3.56,34.7-11,56Z"/>
    <path class="m" d="M560.91,659.37s-1.08,9.12-4,16.67c-6.18,16.01-26.78,26.12-36,30-33.73,14.19-67.15,8.88-84,6-19.15-3.28-54.66-9.81-88-38-11.63-9.83-36.17-31.14-46-67-1.91-6.98-2.94-13.31-3.5-18.58,6.5,3.69,13.14,6.2,19.22,8.03.01,0,.02,0,.03,0,5.35,1.6,10.26,2.67,14.25,3.54,1.65.36,3.8.82,6.38,1.27.03,0,.06.01.08.01,5.71.99,13.5,1.92,22.54,1.64,2.58-.08,5.27-.26,8.04-.57.61.88,1.27,1.76,1.96,2.65,8.06,10.41,18.92,24.44,38,34,8.53,4.28,16.41,6.18,28,7.89,4.64.69,9.89,1.34,16,2.11,38.33,4.8,66.37,3.09,74,2,14-2,25.95-4.73,34-7,.51,4.3-.16,8.28-1,15.33Z"/>
    <path class="i" d="M438.91,567.04v80c-11.59-1.71-20.47-3.72-29-8-19.08-9.56-29.94-23.59-38-34-.69-.89-1.35-1.77-1.96-2.65,10.48-1.15,22.15-4.12,33.96-10.35,3.95-2.09,7.55-4.34,10.83-6.68,9.07-6.48,16-11.29,20.07-18.32h4.1Z"/>
    <path class="k" d="M605.41,556.54c10.51-4.71,30.13-13.08,46-22,36.61-20.57,61.33-40.52,68-46,13.93-11.43,31.05-26.92,49-47,1.32,7.91,2.38,19.71,0,33.5-2.31,13.4-7.83,28.49-26,52.5-25.13,33.21-52.3,54.22-66,64-12.96,9.26-40.63,27.94-80,42-14,5-25,8-34,11"/>
    <path class="k" d="M507.91,604.04c-.67,15.33-1.33,30.67-2,46"/>
    <line class="k" x1="651.41" y1="534.54" x2="656.91" y2="604.5"/>
    <line class="k" x1="584.58" y1="583.47" x2="586.32" y2="637"/>
    <line class="k" x1="709.78" y1="496.18" x2="715.09" y2="558.82"/>
  </g>
  <circle class="i" cx="291.91" cy="362.04" r="37"/>
  <path class="h" d="M572.91,361.04c8.26,1.22,14.04,4.87,19,8,11.15,7.04,18.05,15.85,22,22,20.57-23.59,46.12-33.61,61-26,7.29,3.73,13.68,12.54,14,13,7.43,10.41,8.72,21.09,9,26,14.22-14.94,37.73-44.09,48-87,4.05-16.93,5.15-32.29,5-45-29.94,36.04-59.85,56.53-80,68-36.73,20.91-51.49,17.79-59,14-3.54-1.78-12.88-7.46-18-19-3.99-9-3.48-17.21-3-21-14.04,8.72-30.35,20.44-47,36-12.99,12.14-23.54,24.15-32,35,11.64-8.47,22.27-13.73,30-17,12.4-5.24,20.52-8.55,31-7Z"/>
</svg>